<?xml version="1.0" encoding="UTF-8" standalone="no"?>
<!-- Created with Inkscape (http://www.inkscape.org/) -->

<svg
   width="141.59448"
   height="217.73666"
   viewBox="0 0 37.46354 57.609492"
   version="1.1"
   id="svg1"
   xml:space="preserve"
   sodipodi:docname="logo.svg"
   inkscape:version="1.4 (e7c3feb1, 2024-10-09)"
   xmlns:inkscape="http://www.inkscape.org/namespaces/inkscape"
   xmlns:sodipodi="http://sodipodi.sourceforge.net/DTD/sodipodi-0.dtd"
   xmlns="http://www.w3.org/2000/svg"
   xmlns:svg="http://www.w3.org/2000/svg"><sodipodi:namedview
     id="namedview1"
     pagecolor="#505050"
     bordercolor="#eeeeee"
     borderopacity="1"
     inkscape:showpageshadow="0"
     inkscape:pageopacity="0"
     inkscape:pagecheckerboard="0"
     inkscape:deskcolor="#505050"
     inkscape:zoom="2.3190084"
     inkscape:cx="68.348179"
     inkscape:cy="103.2769"
     inkscape:window-width="2544"
     inkscape:window-height="1348"
     inkscape:window-x="12"
     inkscape:window-y="52"
     inkscape:window-maximized="0"
     inkscape:current-layer="layer1" /><defs
     id="defs1" /><g
     id="layer1"
     transform="translate(-169.68709,-79.428108)"><g
       id="g12"><path
         style="fill:#5a7f38;stroke:#5a7f38;stroke-width:8.86971;stroke-linecap:round;stroke-miterlimit:5;stroke-dasharray:none;stroke-opacity:1;fill-opacity:1"
         d="m 136.35998,72.31211 c 0,0 -12.15786,9.222851 -15.28885,16.528484 l -3.71891,8.677453"
         id="path1-4"
         transform="matrix(0.47728004,0,0,0.47728004,135.68684,47.031649)" /><path
         style="fill:#ed7636;fill-opacity:1;stroke:#f27e1a;stroke-width:2.09547;stroke-linecap:round;stroke-linejoin:round;stroke-miterlimit:5;stroke-dasharray:none;stroke-opacity:1"
         d="m 84.853031,100.11035 c 0,0 -27.511426,40.92216 -1.191076,87.42292 45.375215,-1.45479 54.540405,-66.87244 54.540405,-66.87244 L 115.56944,97.881921 Z"
         id="path3-2"
         transform="matrix(0.47728004,0,0,0.47728004,135.68684,47.031649)" /><path
         style="fill:#5a7f38;fill-opacity:1;stroke:#5a7f38;stroke-width:2.09547;stroke-linecap:round;stroke-linejoin:round;stroke-miterlimit:5;stroke-dasharray:none;stroke-opacity:1"
         d="m 117.27288,98.185771 c 0,0 -7.89483,-16.180957 -26.076154,-12.875261 -18.181333,3.305697 -17.644979,20.88499 -17.644979,20.88499 l 24.669582,-3.67511 c 0,0 -3.182555,22.68287 7.560961,26.81498 10.74351,4.13212 22.48038,-13.38971 22.48038,-13.38971 l 14.29549,17.10862 c 0,0 11.78958,-2.94396 2.6681,-24.22624 -6.4061,-14.946751 -27.95338,-10.642269 -27.95338,-10.642269 z"
         id="path2-3"
         transform="matrix(0.47728004,0,0,0.47728004,135.68684,47.031649)" /></g></g></svg>
