<?xml version="1.0" encoding="UTF-8" standalone="no"?>
<!-- Created with Inkscape (http://www.inkscape.org/) -->

<svg
   width="600"
   height="448.19958"
   viewBox="0 0 150 112.0499"
   version="1.1"
   id="svg1"
   xml:space="preserve"
   xmlns="http://www.w3.org/2000/svg"
   xmlns:svg="http://www.w3.org/2000/svg"><defs
     id="defs1" /><g
     id="layer1"><g
       style="clip-rule:evenodd;fill:#1c2a30;fill-opacity:1;fill-rule:evenodd;stroke-linejoin:round;stroke-miterlimit:2"
       id="g4"
       transform="matrix(1.1864308,0,0,1.1864308,32.99829,26.918288)"><g
         transform="translate(0.00216511)"
         id="g3"
         style="fill:#1c2a30;fill-opacity:1"><g
           transform="matrix(0.997444,0,0,1,-367.767,-282)"
           id="g1"
           style="fill:#1c2a30;fill-opacity:1"><path
             d="m 467.57651,353.75439 v -84.52473 c -10.5628,0 -10.5628,-9.91812 -21.1256,-9.91812 -10.52065,0 -10.5628,9.84126 -21.00162,9.91812 h -0.12398 c -10.64721,0 -10.48019,-9.91812 -21.1256,-9.91812 -10.64337,0 -10.47635,9.91812 -21.12561,9.91812 -10.5628,0 -10.5628,-9.91812 -21.1256,-9.91812 -10.5628,0 -10.5628,9.91812 -21.1256,9.91812 v 84.52473 z"
             style="fill:#1c2a30;fill-opacity:1;fill-rule:nonzero;stroke-width:2.47953"
             id="path1-2" /></g><g
           transform="matrix(0.997444,0,0,0.997444,-367.767,-281.657)"
           id="g2"
           style="fill:#1c2a30;fill-opacity:1" /></g></g><g
       style="clip-rule:evenodd;fill:#1c2a30;fill-opacity:1;fill-rule:evenodd;stroke-linejoin:round;stroke-miterlimit:2"
       id="g8"
       transform="matrix(1.1864308,0,0,1.1864308,180.92287,26.918288)"><g
         transform="translate(0.00216511)"
         id="g7"
         style="fill:#1c2a30;fill-opacity:1"><g
           transform="matrix(0.997444,0,0,1,-367.767,-282)"
           id="g5"
           style="fill:#1c2a30;fill-opacity:1"><path
             d="m 467.57651,353.75439 v -84.52473 c -10.5628,0 -10.5628,-9.91812 -21.1256,-9.91812 -10.52065,0 -10.5628,9.84126 -21.00162,9.91812 h -0.12398 c -10.64721,0 -10.48019,-9.91812 -21.1256,-9.91812 -10.64337,0 -10.47635,9.91812 -21.12561,9.91812 -10.5628,0 -10.5628,-9.91812 -21.1256,-9.91812 -10.5628,0 -10.5628,9.91812 -21.1256,9.91812 v 84.52473 z"
             style="fill:#1c2a30;fill-opacity:1;fill-rule:nonzero;stroke-width:2.47953"
             id="path1" /></g><g
           transform="matrix(0.997444,0,0,0.997444,-367.767,-281.657)"
           id="g6"
           style="fill:#1c2a30;fill-opacity:1" /></g></g><g
       style="clip-rule:evenodd;fill:#1c2a30;fill-opacity:1;fill-rule:evenodd;stroke-linejoin:round;stroke-miterlimit:2"
       id="g12"
       transform="matrix(1.1864308,0,0,1.1864308,-114.27176,26.918288)"><g
         transform="translate(0.00216511)"
         id="g11"
         style="fill:#1c2a30;fill-opacity:1"><g
           transform="matrix(0.997444,0,0,1,-367.767,-282)"
           id="g9"
           style="fill:#1c2a30;fill-opacity:1"><path
             d="m 467.57651,353.75439 v -84.52473 c -10.5628,0 -10.5628,-9.91812 -21.1256,-9.91812 -10.52065,0 -10.5628,9.84126 -21.00162,9.91812 h -0.12398 c -10.64721,0 -10.48019,-9.91812 -21.1256,-9.91812 -10.64337,0 -10.47635,9.91812 -21.12561,9.91812 -10.5628,0 -10.5628,-9.91812 -21.1256,-9.91812 -10.5628,0 -10.5628,9.91812 -21.1256,9.91812 v 84.52473 z"
             style="fill:#1c2a30;fill-opacity:1;fill-rule:nonzero;stroke-width:2.47953"
             id="path8" /></g><g
           transform="matrix(0.997444,0,0,0.997444,-367.767,-281.657)"
           id="g10"
           style="fill:#1c2a30;fill-opacity:1" /></g></g></g></svg>
